# xmcd CD database file
#
# Track frame offsets:
#	150
#	31993
#	50473
#	66786
#	85805
#	119187
#	129179
#	185552
#	197929
#
# Disc length: 3414 seconds
#
# Revision: 0
# Processed by: cddbd v1.5.2PL0 Copyright (c) Steve Scherf et al.
# Submitted via: CDex 1.70beta3
#
DISCID=800d5409
DTITLE=Supersilent - 13
DYEAR=2016
DGENRE=Jazz
TTITLE0=13.1
TTITLE1=13.2
TTITLE2=13.3
TTITLE3=13.4
TTITLE4=13.5
TTITLE5=13.6
TTITLE6=13.7
TTITLE7=13.8
TTITLE8=13.9
EXTD=YEAR: 2016
EXTT0=
EXTT1=
EXTT2=
EXTT3=
EXTT4=
EXTT5=
EXTT6=
EXTT7=
EXTT8=
PLAYORDER=
